<svg version="1.1" id="Layer_1" xmlns="http://www.w3.org/2000/svg" xmlns:xlink="http://www.w3.org/1999/xlink" x="0px" y="0px"
	 width="100%" viewBox="0 0 804 199" enable-background="new 0 0 804 199" xml:space="preserve">
<path fill="#0B0B0B" opacity="1.000000" stroke="none" 
	d="
M528.000000,200.000000 
	C352.000031,200.000000 176.500046,200.000000 1.000047,200.000000 
	C1.000031,133.666702 1.000031,67.333389 1.000016,1.000065 
	C268.999939,1.000043 536.999878,1.000043 804.999878,1.000022 
	C804.999878,67.333260 804.999878,133.666519 804.999939,199.999893 
	C712.833313,200.000000 620.666687,200.000000 528.000000,200.000000 
M511.683807,130.989807 
	C512.070374,130.326355 512.456909,129.662903 513.296387,128.669632 
	C513.601868,128.008820 513.907288,127.348022 514.706482,126.292366 
	C515.005249,125.526482 515.303955,124.760597 516.006592,123.533463 
	C516.092163,122.940186 516.177734,122.346909 516.864746,121.270844 
	C518.046936,116.596359 517.186951,112.361938 514.054443,108.091187 
	C513.696838,107.727470 513.339294,107.363754 512.961670,106.387756 
	C512.307434,105.997292 511.653229,105.606834 510.730652,104.676804 
	C510.024597,104.394836 509.318542,104.112869 508.177704,103.312302 
	C507.115845,103.038582 506.054016,102.764862 504.526062,102.010796 
	C503.344971,101.022301 502.163879,100.033806 500.932434,98.455147 
	C500.273499,98.349358 499.614594,98.243576 498.160492,98.231781 
	C497.114410,98.044861 496.068359,97.857941 494.883453,97.078766 
	C493.922485,97.051872 492.961548,97.024979 491.066620,97.140411 
	C488.280670,97.012825 485.494080,96.897972 482.708923,96.754753 
	C478.138245,96.519707 473.568542,96.266235 468.928406,95.442223 
	C468.610352,95.132339 468.292297,94.822449 467.974182,94.512558 
	C467.648682,94.997139 467.323181,95.481712 466.749390,96.272537 
	C466.749390,96.272537 466.374756,96.149681 465.629456,96.040047 
	C464.451477,96.264572 463.273499,96.489090 461.263824,96.724083 
	C460.162689,96.775436 459.061554,96.826790 457.658447,96.466873 
	C457.096558,96.848236 456.534637,97.229599 455.088623,97.880196 
	C451.396851,97.864990 447.705109,97.849777 443.998169,97.073189 
	C441.918488,93.220146 439.979523,92.927521 436.199982,96.373680 
	C424.659912,96.795837 413.122620,97.381432 401.578735,97.576462 
	C395.062927,97.686562 394.613281,97.795120 393.230438,105.516144 
	C397.440063,105.221619 401.533234,104.842247 405.635071,104.678238 
	C408.809875,104.551300 410.360016,106.037285 409.418365,109.350311 
	C406.990753,117.891205 404.502899,126.415146 402.111786,134.966187 
	C400.552032,140.544205 399.119446,146.157822 397.362823,152.759033 
	C402.120300,150.855804 405.868439,147.878265 408.989960,148.432129 
	C414.550842,149.418793 414.713165,146.235153 415.434662,142.891724 
	C417.422882,133.678223 418.982269,124.355927 421.393036,115.257294 
	C422.465668,111.209053 422.867950,105.992241 427.970886,104.353348 
	C431.697449,103.156487 435.655426,102.679993 440.291473,101.720718 
	C439.317963,118.598839 433.096832,133.522018 427.557220,149.555756 
	C435.681213,144.166656 444.092010,148.042557 452.320435,147.936966 
	C452.320435,147.936966 452.222260,147.965332 452.722412,148.381317 
	C452.885620,148.238556 453.048828,148.095795 452.646881,148.477570 
	C453.040405,148.741104 453.433929,149.004623 453.801727,149.159485 
	C453.801727,149.159485 453.711365,149.225067 453.923462,149.680939 
	C454.851654,149.521790 455.779846,149.362640 457.349945,149.438934 
	C458.233215,149.266861 459.116516,149.094772 460.936462,149.021133 
	C465.924469,148.593124 470.912476,148.165115 476.814941,147.989166 
	C481.206268,147.750443 485.597626,147.511703 490.639130,147.458542 
	C491.650391,147.038849 492.661652,146.619156 493.908966,146.212631 
	C493.908966,146.212631 494.000000,145.994446 494.675873,145.857117 
	C496.192932,144.932022 497.710022,144.006927 499.823883,143.079544 
	C500.215637,142.658722 500.607422,142.237900 501.575653,141.756531 
	C502.021027,141.161697 502.466400,140.566879 503.545563,139.725861 
	C505.344910,137.420288 507.144257,135.114731 509.521301,132.658035 
	C510.074280,132.143799 510.627289,131.629562 511.092285,131.090668 
	C511.092285,131.090668 511.116333,131.178818 511.683807,130.989807 
M176.369858,41.512852 
	C175.867783,40.025036 175.365692,38.537220 174.950531,36.323540 
	C174.757278,35.888920 174.564026,35.454300 174.512161,34.486397 
	C174.241974,34.026791 173.971802,33.567184 173.804825,32.376205 
	C173.628357,31.924200 173.451889,31.472197 173.422226,30.387918 
	C173.000656,29.411776 172.579086,28.435633 172.277176,26.832636 
	C172.108826,26.224642 171.940491,25.616648 171.875122,24.365082 
	C171.511673,23.603130 171.148239,22.841179 170.877396,21.383646 
	C169.317917,19.563547 167.758453,17.743446 166.007599,15.498010 
	C165.331436,15.313763 164.655258,15.129516 163.290451,14.592626 
	C162.541321,14.687772 161.792175,14.782919 160.551743,14.669458 
	C159.591995,15.073144 158.632248,15.476830 156.982315,15.795527 
	C156.325531,15.991746 155.668732,16.187965 154.341522,16.329382 
	C152.884308,17.215975 151.427078,18.102570 149.443283,19.065121 
	C149.233521,19.516096 149.023773,19.967070 148.293442,20.764950 
	C148.027527,21.515244 147.761612,22.265539 147.194290,23.780952 
	C147.319885,24.847977 147.445465,25.915003 147.442444,27.645540 
	C147.872177,28.676029 148.301910,29.706520 148.536346,31.149069 
	C148.508224,31.480520 148.623672,31.750601 148.724503,32.466221 
	C149.178513,33.633522 149.632523,34.800827 149.996994,36.664024 
	C150.137955,37.104855 150.278915,37.545681 150.322800,38.665562 
	C150.775269,39.702240 151.227753,40.738914 151.474747,42.172318 
	C151.449524,42.501709 151.573425,42.759365 151.687546,43.551769 
	C152.577530,46.324383 153.467514,49.096996 154.250778,52.609287 
	C154.429184,53.066277 154.607590,53.523266 154.637634,54.588829 
	C155.046310,55.524326 155.454987,56.459820 155.765366,58.064087 
	C155.947906,58.706253 156.130447,59.348419 156.218170,60.624939 
	C156.584915,61.378170 156.951660,62.131397 157.216309,63.620060 
	C157.392334,64.073311 157.568359,64.526558 157.587326,65.605560 
	C158.007233,66.584625 158.427139,67.563683 158.748184,69.302177 
	C162.629608,84.196297 166.511032,99.090424 170.694855,114.658966 
	C171.174545,116.418983 171.608780,118.192902 172.142502,119.936378 
	C173.692642,125.000099 174.388519,130.598557 177.068008,134.978851 
	C181.019852,141.439133 186.395172,147.028671 191.238663,153.570450 
	C191.827164,154.026917 192.415649,154.483398 193.530273,155.380020 
	C194.089539,155.119812 194.648788,154.859604 195.815491,153.871277 
	C202.739716,154.130142 209.662552,154.476212 216.589142,154.586243 
	C218.309937,154.613571 220.187531,154.161545 221.715347,153.384094 
	C222.617188,152.925186 222.973907,151.395020 223.575760,150.346603 
	C222.641129,149.848969 221.700562,148.910461 220.772797,148.922928 
	C212.808640,149.030014 204.846786,149.309082 196.814774,149.538742 
	C196.760315,149.263092 196.632706,148.617233 196.817673,147.218033 
	C196.850922,146.137177 196.884186,145.056320 197.203568,143.375488 
	C197.479095,141.246643 197.754623,139.117783 198.329407,136.335098 
	C198.349686,135.154266 198.369980,133.973419 198.841431,132.211288 
	C198.685318,129.877686 198.529205,127.544098 198.525955,124.641426 
	C198.347641,124.093338 198.169327,123.545250 198.169601,122.522736 
	C197.448074,121.344162 196.726547,120.165588 196.103180,118.279137 
	C194.743866,113.497902 193.384537,108.716675 192.111710,103.263695 
	C188.579559,89.854691 185.047409,76.445686 181.273865,62.447231 
	C181.149887,61.643459 181.025894,60.839684 180.995224,59.338291 
	C180.852966,58.896893 180.710709,58.455494 180.669144,57.334183 
	C180.217392,56.299049 179.765640,55.263920 179.506927,53.828758 
	C179.531265,53.505051 179.414948,53.244038 179.302322,52.433025 
	C178.330963,49.324814 177.359619,46.216606 176.572540,42.748127 
	C176.589767,42.444763 176.465912,42.218708 176.369858,41.512852 
M125.969452,44.494801 
	C125.969452,44.494801 125.954384,44.427135 125.122490,43.978004 
	C119.021049,45.932396 116.471367,50.833614 114.207756,56.876442 
	C113.578751,58.926991 112.949745,60.977539 112.023224,63.618874 
	C111.946892,64.271423 111.870560,64.923981 111.359818,65.801262 
	C111.224052,66.539040 111.088287,67.276825 110.664513,68.417992 
	C110.535759,68.743607 110.540649,69.067200 110.265625,69.907379 
	C110.085098,70.965225 109.904579,72.023064 109.307632,73.774307 
	C109.169868,75.110580 109.032104,76.446846 108.457489,78.135132 
	C108.270401,79.423599 108.083321,80.712074 107.656967,82.557846 
	C107.655388,83.157280 107.653809,83.756706 107.216652,84.919167 
	C107.047264,86.305717 106.877876,87.692261 106.347153,89.807884 
	C106.291603,90.886475 106.236053,91.965065 105.855064,93.622581 
	C105.577736,95.746017 105.300415,97.869453 104.773903,100.728615 
	C104.731087,102.266357 104.688278,103.804092 104.216881,105.897179 
	C104.047844,107.960541 103.878807,110.023903 103.394012,112.768684 
	C103.321449,114.527122 103.248878,116.285568 102.863129,118.475571 
	C102.870667,119.328979 102.878204,120.182396 102.590927,121.436142 
	C102.450920,121.772026 102.483101,122.090508 102.232262,122.808800 
	C102.166931,124.202148 102.101608,125.595490 101.825127,127.744209 
	C101.789246,129.300598 101.753357,130.856979 101.286751,133.045502 
	C101.067772,135.721313 100.848793,138.397125 100.355415,141.869110 
	C100.324692,143.267883 100.293961,144.666672 99.914665,146.742950 
	C99.616196,150.159973 99.317734,153.577011 98.836479,157.817184 
	C98.815948,161.788727 101.733528,161.230759 104.108841,161.011475 
	C106.345718,160.804947 108.536827,160.102615 111.767517,159.395157 
	C113.490143,149.324661 115.307220,138.701965 117.771034,127.839386 
	C118.228165,127.847023 118.685295,127.854652 119.289696,128.612900 
	C119.488640,130.411499 119.687584,132.210114 119.408165,134.410583 
	C119.787880,135.677673 120.167595,136.944763 120.661728,139.065353 
	C120.845596,141.368195 121.029472,143.671021 120.732796,146.308167 
	C121.093750,147.238586 121.454697,148.169022 121.970535,149.891357 
	C122.124863,151.225342 122.279190,152.559311 122.206970,154.660660 
	C122.742157,156.538055 123.277344,158.415466 124.446945,160.852173 
	C127.941116,160.820511 131.435287,160.788834 135.754272,160.831909 
	C135.710953,156.583084 135.667633,152.334244 135.727554,147.266022 
	C135.452103,144.516617 135.176651,141.767197 135.186859,138.314621 
	C135.093277,136.591385 134.999680,134.868164 135.407791,132.834244 
	C135.052216,131.525558 134.696640,130.216858 134.177963,128.034729 
	C134.060181,125.367683 133.942398,122.700638 134.359177,119.582428 
	C133.981873,118.032745 133.604568,116.483063 133.017517,114.128334 
	C132.728104,111.099228 132.438690,108.070122 132.422455,104.501366 
	C132.195938,103.361092 131.969421,102.220818 131.901840,100.232574 
	C131.846542,98.797974 131.791260,97.363365 132.169708,95.559532 
	C132.172668,95.012711 132.175644,94.465881 132.516006,93.151794 
	C133.636597,88.095840 134.757187,83.039879 136.011780,77.379379 
	C141.844131,82.584435 148.275024,81.985367 154.543701,81.858276 
	C155.516769,81.838554 157.047714,80.763779 157.324600,79.868752 
	C158.594604,75.763512 154.975082,69.549240 150.679337,68.601433 
	C145.305283,67.415710 142.158569,64.553772 141.911972,58.863144 
	C141.840408,57.211372 141.529037,55.569988 141.794861,53.417332 
	C141.622864,49.783817 140.841797,46.503830 136.477997,44.944538 
	C136.166519,44.853653 135.922516,44.672104 135.841934,43.447273 
	C135.797684,42.811710 135.753433,42.176147 136.190613,41.150909 
	C137.450378,40.095219 138.710144,39.039528 140.688248,37.825920 
	C140.921890,37.003357 141.155533,36.180798 141.446274,34.524269 
	C141.104721,30.651615 141.648621,26.374353 140.125702,23.041523 
	C139.019241,20.620146 135.053665,17.921457 132.591705,18.124254 
	C129.826050,18.352068 126.248901,21.156553 124.898178,23.798025 
	C120.882088,31.651888 122.007790,35.052383 128.729996,41.934433 
	C127.793945,42.780464 126.857895,43.626495 125.969452,44.494801 
M326.769257,100.661758 
	C322.417664,99.487198 318.123718,97.676704 313.701965,97.275749 
	C305.508972,96.532829 297.241943,96.587013 289.003845,96.385139 
	C287.938416,96.359024 286.861938,96.783501 285.790558,96.999260 
	C285.240631,97.282005 284.690674,97.564758 284.140747,97.847504 
	C294.233643,100.734497 291.144287,107.664352 290.088501,113.192085 
	C288.634552,120.804436 285.403839,128.066025 283.753448,135.656006 
	C282.525940,141.301285 281.958191,146.826385 274.283508,148.120590 
	C274.682312,148.779907 275.081116,149.439240 275.479950,150.098557 
	C282.906372,149.084152 290.332825,148.069733 298.122650,147.005692 
	C297.775604,145.846802 297.100677,144.743820 297.198944,143.714630 
	C297.552551,140.010147 297.835175,136.227615 298.924164,132.716354 
	C299.185455,131.873840 302.991669,131.076447 304.221771,131.820953 
	C306.392578,133.134888 308.629303,135.401749 309.360016,137.733063 
	C310.083557,140.041443 309.102020,142.942871 308.657562,145.548218 
	C307.010406,155.204010 313.537598,162.905563 323.265533,163.264191 
	C331.251099,163.558594 337.641663,159.965363 343.846527,155.770355 
	C345.118286,154.910553 345.794647,153.170059 346.904480,151.612274 
	C341.882141,152.851364 337.547089,154.418640 333.092499,154.916718 
	C323.693665,155.967636 320.090485,151.843414 322.247559,142.566132 
	C323.199921,138.470032 322.001678,135.475388 319.449280,132.596024 
	C318.616058,131.656082 317.893433,130.618042 317.027618,129.505890 
	C331.632660,124.468834 336.143494,111.545563 326.769257,100.661758 
M553.882690,105.421425 
	C553.024597,109.300613 552.410522,113.253975 551.258728,117.043922 
	C548.666016,125.574623 545.782166,134.016510 543.080688,142.514847 
	C542.633057,143.923004 542.123047,145.504364 542.372437,146.872467 
	C542.535950,147.768799 544.025513,149.098099 544.902527,149.083862 
	C552.590393,148.959167 557.428101,144.087494 558.859558,136.244308 
	C560.174194,129.040909 562.104492,121.949860 563.763550,114.809311 
	C564.264832,114.761230 564.766174,114.713142 565.267456,114.665054 
	C566.560547,117.717636 568.262451,120.668167 569.055542,123.845535 
	C570.409424,129.269897 571.510193,134.800995 572.133423,140.352783 
	C572.861328,146.835403 576.460022,149.107819 582.542603,149.739792 
	C585.637268,150.061310 587.300476,149.675537 588.233215,146.762711 
	C589.897583,141.565338 591.591797,136.377502 593.273560,131.185684 
	C595.756287,123.521111 597.747437,115.645966 600.905884,108.270721 
	C602.806030,103.833786 606.524719,100.175629 609.275940,96.375038 
	C602.426453,96.925056 595.166382,97.508041 588.970276,98.005592 
	C586.007324,110.873718 583.204712,123.045502 580.402100,135.217285 
	C579.951782,135.216064 579.501465,135.214844 579.051147,135.213623 
	C578.580994,133.900116 577.935669,132.621155 577.668823,131.267563 
	C575.781494,121.697029 574.082336,112.087440 572.034119,102.552406 
	C571.670776,100.860802 570.272034,98.662277 568.804749,98.083244 
	C565.350708,96.720200 555.939758,101.297249 553.882690,105.421425 
M360.246643,100.669106 
	C358.889893,103.367500 357.587646,106.095284 356.154480,108.752472 
	C355.383148,110.182549 354.455292,111.542435 353.479492,112.845184 
	C351.037384,116.105499 348.241302,119.138855 346.117157,122.589470 
	C343.433533,126.948853 341.061737,130.984207 334.797455,130.275696 
	C331.867493,129.944305 328.785736,130.954803 325.485535,131.395462 
	C327.161102,137.948227 332.940399,135.311554 336.708313,136.970413 
	C336.448700,137.820099 336.391296,138.519531 336.048950,139.026611 
	C335.220184,140.254227 334.287811,141.416260 333.344635,142.561447 
	C331.251251,145.103165 332.151764,147.772964 335.313660,148.325775 
	C340.386200,149.212646 344.833038,146.672318 346.401642,141.625610 
	C347.666718,137.555344 350.011353,135.572815 354.403198,135.792252 
	C359.712646,136.057541 365.053040,135.803009 370.347321,136.204727 
	C371.670013,136.305084 374.069733,138.284470 373.932495,139.018250 
	C372.799469,145.075119 378.047760,147.718582 380.512207,151.745667 
	C381.196381,152.863678 383.791260,153.496201 385.273865,153.194290 
	C386.215576,153.002518 387.284729,150.692490 387.325134,149.304092 
	C387.481720,143.920700 387.322906,138.523544 387.145264,133.136002 
	C386.802460,122.740326 386.389130,112.346802 385.959106,101.954277 
	C385.792694,97.931686 383.164124,95.488716 379.102203,95.840233 
	C375.463715,96.155113 371.815826,96.662003 368.252960,97.449928 
	C365.670502,98.021049 363.220184,99.189819 360.246643,100.669106 
M261.755310,131.028595 
	C268.405487,129.972717 274.638672,128.155136 279.546173,123.037842 
	C284.491913,117.880653 286.145721,110.057594 282.284576,105.395737 
	C278.672882,101.035027 274.133667,97.237602 268.188904,96.973885 
	C259.180115,96.574249 250.140503,96.869461 241.377548,96.869461 
	C242.120224,100.617920 243.947403,104.443970 243.341415,107.835243 
	C241.781906,116.562645 239.533875,125.223618 236.798340,133.663971 
	C235.034058,139.107544 231.923004,144.114639 229.570267,148.996292 
	C236.172501,148.433426 243.819519,147.781479 251.857513,147.096207 
	C251.566544,146.035599 251.460251,145.246033 251.142914,144.553101 
	C247.626099,136.873795 250.764526,131.562592 258.927643,131.412399 
	C259.591125,131.400208 260.253265,131.316574 261.755310,131.028595 
M535.324402,129.298508 
	C538.909851,118.282768 540.668823,106.469955 549.932617,97.202934 
	C541.392883,97.592522 533.630798,97.946640 526.119446,98.289314 
	C528.462280,116.411476 519.576416,131.948593 515.391174,147.494781 
	C522.626587,147.494781 530.477417,147.494781 537.039917,147.494781 
	C535.802734,143.730026 534.182800,140.034637 533.495605,136.173248 
	C533.166565,134.323959 534.604248,132.160294 535.324402,129.298508 
z"/>
<path fill="#F1F1F1" opacity="1.000000" stroke="none" 
	d="
M327.043884,100.900467 
	C336.143494,111.545563 331.632660,124.468834 317.027618,129.505890 
	C317.893433,130.618042 318.616058,131.656082 319.449280,132.596024 
	C322.001678,135.475388 323.199921,138.470032 322.247559,142.566132 
	C320.090485,151.843414 323.693665,155.967636 333.092499,154.916718 
	C337.547089,154.418640 341.882141,152.851364 346.904480,151.612274 
	C345.794647,153.170059 345.118286,154.910553 343.846527,155.770355 
	C337.641663,159.965363 331.251099,163.558594 323.265533,163.264191 
	C313.537598,162.905563 307.010406,155.204010 308.657562,145.548218 
	C309.102020,142.942871 310.083557,140.041443 309.360016,137.733063 
	C308.629303,135.401749 306.392578,133.134888 304.221771,131.820953 
	C302.991669,131.076447 299.185455,131.873840 298.924164,132.716354 
	C297.835175,136.227615 297.552551,140.010147 297.198944,143.714630 
	C297.100677,144.743820 297.775604,145.846802 298.122650,147.005692 
	C290.332825,148.069733 282.906372,149.084152 275.479950,150.098557 
	C275.081116,149.439240 274.682312,148.779907 274.283508,148.120590 
	C281.958191,146.826385 282.525940,141.301285 283.753448,135.656006 
	C285.403839,128.066025 288.634552,120.804436 290.088501,113.192085 
	C291.144287,107.664352 294.233643,100.734497 284.140747,97.847504 
	C284.690674,97.564758 285.240631,97.282005 285.790558,96.999260 
	C286.861938,96.783501 287.938416,96.359024 289.003845,96.385139 
	C297.241943,96.587013 305.508972,96.532829 313.701965,97.275749 
	C318.123718,97.676704 322.417664,99.487198 327.043884,100.900467 
M314.322601,120.679771 
	C319.121063,114.000526 317.940430,107.521835 311.410278,103.851311 
	C308.985809,102.488556 306.959656,102.817795 306.156891,105.297340 
	C304.000702,111.957413 302.223419,118.740158 300.189026,125.846802 
	C306.455719,127.147095 310.439270,125.058899 314.322601,120.679771 
z"/>
<path fill="#F1F1F1" opacity="1.000000" stroke="none" 
	d="
M452.406158,147.987732 
	C444.092010,148.042557 435.681213,144.166656 427.557220,149.555756 
	C433.096832,133.522018 439.317963,118.598839 440.291473,101.720718 
	C435.655426,102.679993 431.697449,103.156487 427.970886,104.353348 
	C422.867950,105.992241 422.465668,111.209053 421.393036,115.257294 
	C418.982269,124.355927 417.422882,133.678223 415.434662,142.891724 
	C414.713165,146.235153 414.550842,149.418793 408.989960,148.432129 
	C405.868439,147.878265 402.120300,150.855804 397.362823,152.759033 
	C399.119446,146.157822 400.552032,140.544205 402.111786,134.966187 
	C404.502899,126.415146 406.990753,117.891205 409.418365,109.350311 
	C410.360016,106.037285 408.809875,104.551300 405.635071,104.678238 
	C401.533234,104.842247 397.440063,105.221619 393.230438,105.516144 
	C394.613281,97.795120 395.062927,97.686562 401.578735,97.576462 
	C413.122620,97.381432 424.659912,96.795837 436.986084,96.286819 
	C439.852539,96.744827 441.932953,97.289696 444.013336,97.834564 
	C447.705109,97.849777 451.396851,97.864990 455.820129,97.809998 
	C457.021210,97.452583 457.490814,97.165375 457.960419,96.878159 
	C459.061554,96.826790 460.162689,96.775436 461.743591,97.104767 
	C456.252716,103.706551 453.811768,111.673164 451.365845,119.613754 
	C449.869995,124.470016 449.079590,129.612442 447.039429,134.212585 
	C445.044067,138.711746 446.784912,141.763016 449.272614,144.928940 
	C450.166718,146.066742 451.353149,146.974808 452.406158,147.987732 
z"/>
<path fill="#F1F1F1" opacity="1.000000" stroke="none" 
	d="
M553.985840,105.048508 
	C555.939758,101.297249 565.350708,96.720200 568.804749,98.083244 
	C570.272034,98.662277 571.670776,100.860802 572.034119,102.552406 
	C574.082336,112.087440 575.781494,121.697029 577.668823,131.267563 
	C577.935669,132.621155 578.580994,133.900116 579.051147,135.213623 
	C579.501465,135.214844 579.951782,135.216064 580.402100,135.217285 
	C583.204712,123.045502 586.007324,110.873718 588.970276,98.005592 
	C595.166382,97.508041 602.426453,96.925056 609.275940,96.375038 
	C606.524719,100.175629 602.806030,103.833786 600.905884,108.270721 
	C597.747437,115.645966 595.756287,123.521111 593.273560,131.185684 
	C591.591797,136.377502 589.897583,141.565338 588.233215,146.762711 
	C587.300476,149.675537 585.637268,150.061310 582.542603,149.739792 
	C576.460022,149.107819 572.861328,146.835403 572.133423,140.352783 
	C571.510193,134.800995 570.409424,129.269897 569.055542,123.845535 
	C568.262451,120.668167 566.560547,117.717636 565.267456,114.665054 
	C564.766174,114.713142 564.264832,114.761230 563.763550,114.809311 
	C562.104492,121.949860 560.174194,129.040909 558.859558,136.244308 
	C557.428101,144.087494 552.590393,148.959167 544.902527,149.083862 
	C544.025513,149.098099 542.535950,147.768799 542.372437,146.872467 
	C542.123047,145.504364 542.633057,143.923004 543.080688,142.514847 
	C545.782166,134.016510 548.666016,125.574623 551.258728,117.043922 
	C552.410522,113.253975 553.024597,109.300613 553.985840,105.048508 
z"/>
<path fill="#F1F1F1" opacity="1.000000" stroke="none" 
	d="
M360.478790,100.380600 
	C363.220184,99.189819 365.670502,98.021049 368.252960,97.449928 
	C371.815826,96.662003 375.463715,96.155113 379.102203,95.840233 
	C383.164124,95.488716 385.792694,97.931686 385.959106,101.954277 
	C386.389130,112.346802 386.802460,122.740326 387.145264,133.136002 
	C387.322906,138.523544 387.481720,143.920700 387.325134,149.304092 
	C387.284729,150.692490 386.215576,153.002518 385.273865,153.194290 
	C383.791260,153.496201 381.196381,152.863678 380.512207,151.745667 
	C378.047760,147.718582 372.799469,145.075119 373.932495,139.018250 
	C374.069733,138.284470 371.670013,136.305084 370.347321,136.204727 
	C365.053040,135.803009 359.712646,136.057541 354.403198,135.792252 
	C350.011353,135.572815 347.666718,137.555344 346.401642,141.625610 
	C344.833038,146.672318 340.386200,149.212646 335.313660,148.325775 
	C332.151764,147.772964 331.251251,145.103165 333.344635,142.561447 
	C334.287811,141.416260 335.220184,140.254227 336.048950,139.026611 
	C336.391296,138.519531 336.448700,137.820099 336.708313,136.970413 
	C332.940399,135.311554 327.161102,137.948227 325.485535,131.395462 
	C328.785736,130.954803 331.867493,129.944305 334.797455,130.275696 
	C341.061737,130.984207 343.433533,126.948853 346.117157,122.589470 
	C348.241302,119.138855 351.037384,116.105499 353.479492,112.845184 
	C354.455292,111.542435 355.383148,110.182549 356.154480,108.752472 
	C357.587646,106.095284 358.889893,103.367500 360.478790,100.380600 
M360.893341,116.516769 
	C358.868469,120.318306 356.843597,124.119843 354.387878,128.730286 
	C360.884949,128.226044 366.677856,127.776466 373.240173,127.267166 
	C372.531128,119.679047 371.885895,112.773926 371.240662,105.868805 
	C370.757446,105.699059 370.274261,105.529312 369.791046,105.359566 
	C366.958557,108.874771 364.126068,112.389984 360.893341,116.516769 
z"/>
<path fill="#F2F2F2" opacity="1.000000" stroke="none" 
	d="
M489.988953,147.272964 
	C485.597626,147.511703 481.206268,147.750443 476.023407,147.637817 
	C471.136200,147.193420 467.036682,146.973816 462.947601,147.097916 
	C461.947449,147.128296 460.981476,148.284241 459.999786,148.922684 
	C459.116516,149.094772 458.233215,149.266861 456.528381,149.275528 
	C455.041656,149.149765 454.376495,149.187408 453.711365,149.225067 
	C453.711365,149.225067 453.801727,149.159485 453.784485,148.965210 
	C453.582184,148.498291 453.397095,148.225677 453.212036,147.953049 
	C453.048828,148.095795 452.885620,148.238556 452.815491,148.020752 
	C455.640289,144.686554 459.645111,142.154755 460.859924,138.654617 
	C464.210052,129.002090 466.515259,118.974693 468.973267,109.031174 
	C469.869141,105.406975 469.596985,101.756889 466.542938,98.832375 
	C466.067017,98.376625 466.410278,97.065353 466.374756,96.149681 
	C466.374756,96.149681 466.749390,96.272537 467.197968,96.237198 
	C468.097168,96.141418 468.547791,96.080978 468.998413,96.020538 
	C473.568542,96.266235 478.138245,96.519707 482.708923,96.754753 
	C485.494080,96.897972 488.280670,97.012825 491.738586,97.330887 
	C493.281158,97.571243 494.151703,97.621132 495.022278,97.671021 
	C496.068359,97.857941 497.114410,98.044861 498.718811,98.439758 
	C499.845703,98.780266 500.414246,98.912796 500.982788,99.045311 
	C502.163879,100.033806 503.344971,101.022301 504.902618,102.573105 
	C506.390289,103.367241 507.501373,103.599068 508.612488,103.830902 
	C509.318542,104.112869 510.024597,104.394836 510.925537,105.238708 
	C511.740875,106.200417 512.361267,106.600235 512.981689,107.000046 
	C513.339294,107.363754 513.696838,107.727470 514.095886,108.761345 
	C514.846008,113.538879 515.554688,117.646255 516.263367,121.753632 
	C516.177734,122.346909 516.092163,122.940186 515.486328,123.886566 
	C514.714966,125.055519 514.463867,125.871368 514.212769,126.687225 
	C513.907288,127.348022 513.601868,128.008820 512.759460,128.902328 
	C511.853821,129.816284 511.485077,130.497559 511.116333,131.178833 
	C511.116333,131.178818 511.092285,131.090668 510.817627,131.106827 
	C510.009857,131.685043 509.476746,132.247116 508.943604,132.809174 
	C507.144257,135.114731 505.344910,137.420288 502.936157,139.900208 
	C501.884277,140.655411 501.441742,141.236252 500.999207,141.817078 
	C500.607422,142.237900 500.215637,142.658722 499.154053,143.093048 
	C496.989502,144.069199 495.494751,145.031830 494.000000,145.994446 
	C494.000000,145.994446 493.908966,146.212631 493.435547,146.159607 
	C491.971039,146.495361 490.980011,146.884171 489.988953,147.272964 
M482.809814,111.729836 
	C480.893921,119.767258 479.008698,127.812195 477.043274,135.837479 
	C476.459137,138.222656 475.781921,140.972946 479.008972,141.390579 
	C481.785248,141.749863 485.161621,141.625900 487.519836,140.337616 
	C497.348114,134.968491 501.194794,125.808716 501.268677,115.133369 
	C501.319855,107.735359 498.632294,105.807503 491.415314,104.656952 
	C485.843842,103.768723 485.620697,108.503639 482.809814,111.729836 
z"/>
<path fill="#F2F2F2" opacity="1.000000" stroke="none" 
	d="
M261.335693,131.147369 
	C260.253265,131.316574 259.591125,131.400208 258.927643,131.412399 
	C250.764526,131.562592 247.626099,136.873795 251.142914,144.553101 
	C251.460251,145.246033 251.566544,146.035599 251.857513,147.096207 
	C243.819519,147.781479 236.172501,148.433426 229.570267,148.996292 
	C231.923004,144.114639 235.034058,139.107544 236.798340,133.663971 
	C239.533875,125.223618 241.781906,116.562645 243.341415,107.835243 
	C243.947403,104.443970 242.120224,100.617920 241.377548,96.869461 
	C250.140503,96.869461 259.180115,96.574249 268.188904,96.973885 
	C274.133667,97.237602 278.672882,101.035027 282.284576,105.395737 
	C286.145721,110.057594 284.491913,117.880653 279.546173,123.037842 
	C274.638672,128.155136 268.405487,129.972717 261.335693,131.147369 
M262.600861,124.328888 
	C267.368744,120.721916 270.041565,115.924484 270.135986,109.960457 
	C270.202850,105.735565 267.520416,103.200401 263.642548,102.324516 
	C259.568054,101.404228 258.739532,104.573296 257.907379,107.583199 
	C256.633636,112.190163 255.334961,116.794128 253.876755,121.344856 
	C252.847473,124.557053 254.286163,125.767036 257.180695,125.688637 
	C258.772797,125.645508 260.349884,125.047943 262.600861,124.328888 
z"/>
<path fill="#F1F1F1" opacity="1.000000" stroke="none" 
	d="
M535.283081,129.718750 
	C534.604248,132.160294 533.166565,134.323959 533.495605,136.173248 
	C534.182800,140.034637 535.802734,143.730026 537.039917,147.494781 
	C530.477417,147.494781 522.626587,147.494781 515.391174,147.494781 
	C519.576416,131.948593 528.462280,116.411476 526.119446,98.289314 
	C533.630798,97.946640 541.392883,97.592522 549.932617,97.202934 
	C540.668823,106.469955 538.909851,118.282768 535.283081,129.718750 
z"/>
<path fill="#181818" opacity="1.000000" stroke="none" 
	d="
M466.002106,96.094864 
	C466.410278,97.065353 466.067017,98.376625 466.542938,98.832375 
	C469.596985,101.756889 469.869141,105.406975 468.973267,109.031174 
	C466.515259,118.974693 464.210052,129.002090 460.859924,138.654617 
	C459.645111,142.154755 455.640289,144.686554 452.565399,147.812759 
	C452.222260,147.965332 452.320435,147.936966 452.363281,147.962341 
	C451.353149,146.974808 450.166718,146.066742 449.272614,144.928940 
	C446.784912,141.763016 445.044067,138.711746 447.039429,134.212585 
	C449.079590,129.612442 449.869995,124.470016 451.365845,119.613754 
	C453.811768,111.673164 456.252716,103.706551 462.159424,97.099525 
	C463.273499,96.489090 464.451477,96.264572 466.002106,96.094864 
z"/>
<path fill="#E7E7E7" opacity="1.000000" stroke="none" 
	d="
M148.814026,20.418045 
	C149.023773,19.967070 149.233521,19.516096 150.050491,18.997505 
	C152.109116,18.081318 153.560532,17.232748 155.011948,16.384182 
	C155.668732,16.187965 156.325531,15.991746 157.703140,15.874350 
	C159.296997,15.594806 160.170013,15.236438 161.043045,14.878067 
	C161.792175,14.782919 162.541321,14.687772 163.833511,15.022108 
	C164.984039,15.608843 165.591507,15.766095 166.198975,15.923347 
	C167.758453,17.743446 169.317917,19.563547 170.582275,21.957930 
	C169.587662,23.043182 168.888184,23.554152 168.018677,23.785133 
	C165.533783,17.348726 162.954117,16.659121 154.783813,20.012590 
	C150.282715,21.860046 149.765564,24.194881 152.609619,30.939632 
	C157.465149,29.850639 162.399124,28.744055 167.675842,27.639185 
	C169.269791,26.763483 170.520966,25.886068 171.772156,25.008656 
	C171.940491,25.616648 172.108826,26.224642 172.173798,27.492962 
	C172.472107,29.108921 172.873779,30.064556 173.275436,31.020191 
	C173.451889,31.472197 173.628357,31.924200 173.591064,32.900452 
	C173.708450,33.956360 174.039597,34.488022 174.370758,35.019684 
	C174.564026,35.454300 174.757278,35.888920 174.649750,36.916821 
	C173.663849,38.096973 172.978729,38.683846 172.144745,38.923904 
	C171.540955,36.981655 170.906464,35.412247 170.670547,33.785049 
	C170.251358,30.893606 168.707352,30.331812 166.103333,30.947388 
	C163.437531,31.577564 163.294052,32.983784 163.920456,35.356800 
	C167.307800,48.189396 170.585571,61.051613 173.802307,73.928291 
	C176.018860,82.801155 178.075027,91.714081 180.030243,100.889214 
	C179.280304,101.444763 178.702988,101.720207 178.014969,101.608299 
	C176.706177,96.874268 175.483200,92.534271 174.315079,88.179565 
	C171.770905,78.695107 169.239288,69.207214 166.731583,59.713055 
	C164.417664,50.952541 162.141647,42.182014 159.880478,33.536411 
	C153.714462,33.877857 152.965683,34.299179 153.724457,37.323475 
	C158.261871,55.408535 162.870956,73.475761 167.510162,91.535065 
	C169.441132,99.051903 171.505630,106.534447 173.119797,114.025421 
	C171.950943,114.007011 171.171707,113.995773 170.392456,113.984543 
	C166.511032,99.090424 162.629608,84.196297 158.840012,68.575806 
	C158.536011,66.892891 158.140198,65.936348 157.744385,64.979805 
	C157.568359,64.526558 157.392334,64.073311 157.451797,63.036194 
	C157.229187,61.631744 156.771088,60.811165 156.312988,59.990585 
	C156.130447,59.348419 155.947906,58.706253 155.856308,57.400307 
	C155.560165,55.817776 155.173080,54.899017 154.785980,53.980263 
	C154.607590,53.523266 154.429184,53.066277 154.493149,51.967171 
	C153.772491,48.531796 152.809464,45.738541 151.846451,42.945282 
	C151.573425,42.759365 151.449524,42.501709 151.663025,41.592926 
	C151.374176,40.004528 150.897034,38.995522 150.419891,37.986511 
	C150.278915,37.545681 150.137955,37.104855 150.253418,36.108986 
	C149.967438,34.355736 149.425064,33.157524 148.882675,31.959312 
	C148.623672,31.750601 148.508224,31.480520 148.706390,30.572428 
	C148.441299,28.991201 148.006165,27.986618 147.571045,26.982031 
	C147.445465,25.915003 147.319885,24.847977 147.647354,23.275917 
	C148.338287,21.986605 148.576157,21.202326 148.814026,20.418045 
z"/>
<path fill="#D6D6D6" opacity="1.000000" stroke="none" 
	d="
M134.906097,133.144928 
	C134.999680,134.868164 135.093277,136.591385 134.753906,138.719025 
	C133.851212,139.431290 133.381485,139.739166 132.739914,139.940201 
	C132.257507,139.572342 131.946930,139.311325 131.488403,138.603256 
	C130.550140,127.773567 129.759842,117.390907 129.178680,106.887848 
	C129.168640,106.151863 128.949478,105.536285 128.575409,104.492325 
	C128.698929,99.615921 128.490921,95.070732 129.356110,90.739952 
	C131.206635,81.477188 134.186386,72.335815 128.007050,63.455967 
	C127.297478,62.436283 127.706146,60.638443 127.596329,59.201401 
	C128.090805,58.878006 128.585266,58.554611 129.079742,58.231216 
	C134.714081,67.624977 137.147919,81.342941 152.832626,77.187401 
	C153.746521,73.295959 151.245270,72.395020 148.219482,71.667145 
	C142.847214,70.374786 138.802673,67.787018 138.703979,61.422134 
	C138.671494,59.327099 137.996719,57.246590 137.673859,55.150471 
	C137.109177,51.484383 136.421753,47.926319 131.972015,46.600197 
	C131.547272,45.836643 131.166565,45.379303 130.968048,44.574684 
	C132.682144,44.284904 134.214066,44.342396 135.745972,44.399887 
	C135.922516,44.672104 136.166519,44.853653 136.796051,45.348194 
	C138.518616,48.475849 139.923111,51.199848 141.327606,53.923843 
	C141.529037,55.569988 141.840408,57.211372 141.911972,58.863144 
	C142.158569,64.553772 145.305283,67.415710 150.679337,68.601433 
	C154.975082,69.549240 158.594604,75.763512 157.324600,79.868752 
	C157.047714,80.763779 155.516769,81.838554 154.543701,81.858276 
	C148.275024,81.985367 141.844131,82.584435 136.011780,77.379379 
	C134.757187,83.039879 133.636597,88.095840 132.136780,93.618790 
	C131.750366,94.700104 131.743164,95.314438 131.735962,95.928764 
	C131.791260,97.363365 131.846542,98.797974 131.605331,100.897644 
	C131.588974,102.722145 131.869125,103.881584 132.149277,105.041016 
	C132.438690,108.070122 132.728104,111.099228 132.996490,114.894348 
	C133.258530,117.118103 133.541580,118.575851 133.824615,120.033592 
	C133.942398,122.700638 134.060181,125.367683 134.170410,128.904877 
	C134.410614,130.898315 134.658356,132.021622 134.906097,133.144928 
z"/>
<path fill="#E2E2E2" opacity="1.000000" stroke="none" 
	d="
M178.125671,101.995659 
	C178.702988,101.720207 179.280304,101.444763 180.376953,101.053764 
	C182.632660,106.908035 184.709290,112.804543 186.015701,118.867012 
	C187.508820,125.795799 187.444702,125.988167 194.310715,123.043900 
	C192.912521,117.732414 191.499481,112.364586 190.420425,106.923508 
	C191.177994,105.878654 191.601608,104.907043 192.025208,103.935440 
	C193.384537,108.716675 194.743866,113.497902 196.049957,118.969208 
	C196.661499,120.771912 197.326263,121.884537 197.991013,122.997162 
	C198.169327,123.545250 198.347641,124.093338 198.339294,125.462715 
	C198.231827,128.453537 198.311035,130.623062 198.390259,132.792587 
	C198.369980,133.973419 198.349686,135.154266 197.915253,136.901428 
	C197.306549,139.637009 197.111984,141.806229 196.917435,143.975464 
	C196.884186,145.056320 196.850922,146.137177 196.319351,147.754761 
	C195.616699,150.394119 195.412384,152.496750 195.208054,154.599396 
	C194.648788,154.859604 194.089539,155.119812 193.228424,154.861115 
	C192.339142,153.891159 191.751694,153.440094 191.164246,152.989044 
	C186.395172,147.028671 181.019852,141.439133 177.068008,134.978851 
	C174.388519,130.598557 173.692642,125.000099 172.142502,119.936378 
	C171.608780,118.192902 171.174545,116.418983 170.543655,114.321754 
	C171.171707,113.995773 171.950943,114.007011 173.392105,114.292831 
	C175.381073,119.007912 176.708130,123.448418 178.041702,127.910728 
	C180.658951,127.130852 182.577667,126.559120 184.372849,126.024193 
	C182.207520,117.695686 180.166611,109.845673 178.125671,101.995659 
M192.969376,127.632881 
	C191.152893,129.066605 189.336395,130.500336 187.424698,132.009201 
	C184.871094,130.468857 182.124054,128.570557 179.522705,132.648880 
	C180.746872,134.257523 181.894119,135.856033 183.135376,137.377853 
	C186.028366,140.924789 190.463486,141.949463 193.257004,139.769333 
	C195.335678,138.147079 195.739914,130.156357 192.969376,127.632881 
z"/>
<path fill="#E7E7E7" opacity="1.000000" stroke="none" 
	d="
M121.213341,145.973862 
	C121.029472,143.671021 120.845596,141.368195 120.724731,138.277802 
	C120.487343,136.329742 120.186935,135.169220 119.886528,134.008713 
	C119.687584,132.210114 119.488640,130.411499 119.155029,127.884399 
	C118.388344,127.463692 117.756325,127.771484 117.124298,128.079269 
	C115.307220,138.701965 113.490143,149.324661 111.767517,159.395157 
	C108.536827,160.102615 106.345718,160.804947 104.108841,161.011475 
	C101.733528,161.230759 98.815948,161.788727 99.171234,157.165771 
	C100.340057,155.342392 101.174118,154.170456 102.067078,153.377457 
	C103.343636,155.389755 104.561317,157.023087 105.778999,158.656433 
	C106.843216,157.304489 108.559402,156.087662 108.871826,154.579926 
	C112.384811,137.626205 115.659988,120.623344 119.073517,103.648659 
	C119.391144,102.069183 120.218124,100.592140 120.808601,99.067543 
	C121.146759,99.158707 121.484924,99.249878 121.823082,99.341049 
	C122.189049,109.566444 122.555023,119.791847 122.711121,130.134796 
	C122.751144,130.876663 123.001045,131.500961 123.398247,132.549347 
	C123.993965,137.651428 124.442390,142.329422 124.565590,147.007767 
	C123.589966,147.010162 122.939583,147.012177 122.128983,146.809860 
	C121.716957,146.394958 121.465149,146.184418 121.213341,145.973862 
z"/>
<path fill="#E7E7E7" opacity="1.000000" stroke="none" 
	d="
M114.778351,56.445595 
	C116.471367,50.833614 119.021049,45.932396 125.399361,44.512344 
	C125.784950,45.700367 125.893669,46.354050 125.713913,47.192829 
	C123.693535,49.027893 121.330879,50.373051 120.356606,52.389141 
	C118.091408,57.076565 116.495636,62.087494 114.374069,67.013046 
	C114.041374,67.694977 113.963181,68.331184 113.907318,69.366463 
	C113.106033,73.495728 112.282417,77.225914 111.215927,81.010391 
	C110.937225,81.697418 110.901390,82.330147 110.912292,83.372803 
	C110.146408,88.841995 109.333786,93.901276 108.268143,99.016388 
	C108.015152,99.716286 108.015175,100.360367 108.072052,101.454208 
	C107.818871,104.586792 107.508842,107.269592 106.981659,110.043243 
	C106.822044,110.750168 106.879601,111.366257 107.014984,112.392021 
	C106.107300,121.522301 105.121788,130.242905 103.895996,139.082306 
	C103.728958,139.790314 103.802200,140.379517 103.945129,141.366058 
	C103.454414,144.900833 102.894028,148.038284 102.018921,150.986053 
	C101.223885,149.219391 100.743561,147.642426 100.263229,146.065445 
	C100.293961,144.666672 100.324692,143.267883 100.812912,141.280548 
	C101.419426,137.932449 101.568451,135.172897 101.717468,132.413361 
	C101.753357,130.856979 101.789246,129.300598 102.206009,127.071045 
	C102.620407,125.062462 102.653931,123.727028 102.687454,122.391602 
	C102.483101,122.090508 102.450920,121.772026 102.993347,121.073608 
	C103.322617,119.822044 103.249458,118.933029 103.176308,118.044006 
	C103.248878,116.285568 103.321449,114.527122 103.890770,112.155075 
	C104.473503,109.474915 104.559479,107.408379 104.645462,105.341835 
	C104.688278,103.804092 104.731087,102.266357 105.160576,100.123993 
	C105.758331,97.360802 105.969421,95.202232 106.180504,93.043655 
	C106.236053,91.965065 106.291603,90.886475 106.843407,89.260101 
	C107.443855,87.260262 107.548042,85.808197 107.652229,84.356140 
	C107.653809,83.756706 107.655388,83.157280 108.060913,82.027275 
	C108.608017,80.258842 108.751175,79.020981 108.894333,77.783119 
	C109.032104,76.446846 109.169868,75.110580 109.823936,73.262794 
	C110.453217,71.630447 110.566200,70.509605 110.679184,69.388771 
	C110.540649,69.067200 110.535759,68.743607 111.085281,67.999931 
	C111.602112,66.913422 111.698166,66.244980 111.794235,65.576530 
	C111.870560,64.923981 111.946892,64.271423 112.509552,63.213905 
	C113.590034,60.687824 114.184196,58.566708 114.778351,56.445595 
z"/>
<path fill="#DEDEDE" opacity="1.000000" stroke="none" 
	d="
M128.905869,41.362480 
	C122.007790,35.052383 120.882088,31.651888 124.898178,23.798025 
	C126.248901,21.156553 129.826050,18.352068 132.591705,18.124254 
	C135.053665,17.921457 139.019241,20.620146 140.125702,23.041523 
	C141.648621,26.374353 141.104721,30.651615 141.183685,35.144272 
	C140.604019,36.504128 140.286972,37.243984 139.969910,37.983837 
	C138.710144,39.039528 137.450378,40.095219 135.560669,41.384323 
	C132.922424,41.532650 130.914154,41.447563 128.905869,41.362480 
M126.049019,28.799026 
	C126.123238,30.277342 125.664650,32.127411 126.382690,33.156513 
	C127.873505,35.293152 129.988586,36.994225 131.847046,38.874344 
	C133.994385,36.648956 137.084183,34.768917 138.057312,32.113251 
	C139.357162,28.566055 138.803452,24.298475 134.714798,22.263403 
	C133.469818,21.643726 131.032196,22.187027 129.795959,23.092339 
	C128.220673,24.245922 127.310616,26.307898 126.049019,28.799026 
z"/>
<path fill="#E7E7E7" opacity="1.000000" stroke="none" 
	d="
M192.068451,103.599564 
	C191.601608,104.907043 191.177994,105.878654 190.295181,106.550262 
	C187.670914,98.226738 185.422470,90.224541 183.362320,82.174156 
	C180.900482,72.554146 178.599686,62.892918 176.715240,53.189331 
	C177.853561,53.101318 178.505768,53.073517 179.157974,53.045719 
	C179.414948,53.244038 179.531265,53.505051 179.326736,54.408707 
	C179.620514,55.997131 180.094498,57.005608 180.568481,58.014091 
	C180.710709,58.455494 180.852966,58.896893 180.747757,59.851570 
	C180.838608,61.255463 181.176926,62.146072 181.515259,63.036682 
	C185.047409,76.445686 188.579559,89.854691 192.068451,103.599564 
z"/>
<path fill="#D6D6D6" opacity="1.000000" stroke="none" 
	d="
M195.511780,154.235336 
	C195.412384,152.496750 195.616699,150.394119 196.163055,148.131424 
	C196.632706,148.617233 196.760315,149.263092 196.814774,149.538742 
	C204.846786,149.309082 212.808640,149.030014 220.772797,148.922928 
	C221.700562,148.910461 222.641129,149.848969 223.575760,150.346603 
	C222.973907,151.395020 222.617188,152.925186 221.715347,153.384094 
	C220.187531,154.161545 218.309937,154.613571 216.589142,154.586243 
	C209.662552,154.476212 202.739716,154.130142 195.511780,154.235336 
z"/>
<path fill="#F2F2F2" opacity="1.000000" stroke="none" 
	d="
M122.289192,147.014206 
	C122.939583,147.012177 123.589966,147.010162 124.689552,147.440582 
	C125.167015,150.197876 124.589714,152.771606 125.411224,154.770432 
	C126.093628,156.430786 128.421722,157.414749 130.020813,158.698349 
	C130.929749,157.281586 132.550964,155.894928 132.612350,154.442337 
	C132.787323,150.302338 132.327148,146.135498 132.357147,141.831406 
	C132.702179,141.138077 132.806961,140.592545 132.911758,140.047028 
	C133.381485,139.739166 133.851212,139.431290 134.611069,139.070602 
	C135.176651,141.767197 135.452103,144.516617 135.447647,147.991516 
	C135.088303,152.730408 135.008881,156.743790 134.929459,160.757172 
	C131.435287,160.788834 127.941116,160.820511 124.200912,160.169891 
	C123.447762,157.622849 122.940643,155.758072 122.433525,153.893295 
	C122.279190,152.559311 122.124863,151.225342 122.048592,149.169479 
	C122.180824,147.969803 122.235008,147.492004 122.289192,147.014206 
z"/>
<path fill="#F1F1F1" opacity="1.000000" stroke="none" 
	d="
M460.468140,148.971909 
	C460.981476,148.284241 461.947449,147.128296 462.947601,147.097916 
	C467.036682,146.973816 471.136200,147.193420 475.566162,147.511780 
	C470.912476,148.165115 465.924469,148.593124 460.468140,148.971909 
z"/>
<path fill="#BDBDBD" opacity="1.000000" stroke="none" 
	d="
M135.341858,160.794540 
	C135.008881,156.743790 135.088303,152.730408 135.396027,148.401215 
	C135.667633,152.334244 135.710953,156.583084 135.341858,160.794540 
z"/>
<path fill="#3B3B3B" opacity="1.000000" stroke="none" 
	d="
M128.817932,41.648457 
	C130.914154,41.447563 132.922424,41.532650 135.319946,41.579155 
	C135.753433,42.176147 135.797684,42.811710 135.793945,43.923580 
	C134.214066,44.342396 132.682144,44.284904 130.557281,44.558052 
	C128.616821,44.749973 127.269333,44.611252 125.921837,44.472527 
	C126.857895,43.626495 127.793945,42.780464 128.817932,41.648457 
z"/>
<path fill="#CDCDCD" opacity="1.000000" stroke="none" 
	d="
M100.088943,146.404205 
	C100.743561,147.642426 101.223885,149.219391 101.992447,151.295914 
	C102.189850,152.196472 102.099014,152.597488 102.008179,152.998505 
	C101.174118,154.170456 100.340057,155.342392 99.262634,156.754181 
	C99.317734,153.577011 99.616196,150.159973 100.088943,146.404205 
z"/>
<path fill="#F1F1F1" opacity="1.000000" stroke="none" 
	d="
M516.564087,121.512238 
	C515.554688,117.646255 514.846008,113.538879 514.135803,109.015762 
	C517.186951,112.361938 518.046936,116.596359 516.564087,121.512238 
z"/>
<path fill="#E2E2E2" opacity="1.000000" stroke="none" 
	d="
M179.230148,52.739372 
	C178.505768,53.073517 177.853561,53.101318 176.500732,52.994305 
	C175.672211,52.309986 175.544312,51.760483 175.765808,50.979332 
	C176.206238,48.201256 176.297241,45.654823 176.388245,43.108395 
	C177.359619,46.216606 178.330963,49.324814 179.230148,52.739372 
z"/>
<path fill="#3B3B3B" opacity="1.000000" stroke="none" 
	d="
M141.561234,53.670589 
	C139.923111,51.199848 138.518616,48.475849 137.023132,45.395851 
	C140.841797,46.503830 141.622864,49.783817 141.561234,53.670589 
z"/>
<path fill="#E7E7E7" opacity="1.000000" stroke="none" 
	d="
M176.480392,42.928261 
	C176.297241,45.654823 176.206238,48.201256 175.601288,50.634972 
	C174.378189,47.447197 173.669006,44.372139 173.380096,41.305031 
	C174.600571,41.565304 175.400757,41.817631 176.200958,42.069958 
	C176.465912,42.218708 176.589767,42.444763 176.480392,42.928261 
z"/>
<path fill="#E2E2E2" opacity="1.000000" stroke="none" 
	d="
M151.766998,43.248528 
	C152.809464,45.738541 153.772491,48.531796 154.546509,51.597328 
	C153.467514,49.096996 152.577530,46.324383 151.766998,43.248528 
z"/>
<path fill="#181818" opacity="1.000000" stroke="none" 
	d="
M444.005737,97.453880 
	C441.932953,97.289696 439.852539,96.744827 437.386749,96.108597 
	C439.979523,92.927521 441.918488,93.220146 444.005737,97.453880 
z"/>
<path fill="#CDCDCD" opacity="1.000000" stroke="none" 
	d="
M101.502106,132.729431 
	C101.568451,135.172897 101.419426,137.932449 100.950111,140.882462 
	C100.848793,138.397125 101.067772,135.721313 101.502106,132.729431 
z"/>
<path fill="#E2E2E2" opacity="1.000000" stroke="none" 
	d="
M176.285400,41.791405 
	C175.400757,41.817631 174.600571,41.565304 173.152374,41.127831 
	C172.434128,40.385365 172.363861,39.828037 172.293610,39.270714 
	C172.978729,38.683846 173.663849,38.096973 174.606293,37.279755 
	C175.365692,38.537220 175.867783,40.025036 176.285400,41.791405 
z"/>
<path fill="#BDBDBD" opacity="1.000000" stroke="none" 
	d="
M125.945648,44.483665 
	C127.269333,44.611252 128.616821,44.749973 130.375092,44.905327 
	C131.166565,45.379303 131.547272,45.836643 131.555237,46.719154 
	C129.455780,47.098797 127.729088,47.053268 126.002396,47.007736 
	C125.893669,46.354050 125.784950,45.700367 125.815308,44.736908 
	C125.954384,44.427135 125.969452,44.494801 125.945648,44.483665 
z"/>
<path fill="#CDCDCD" opacity="1.000000" stroke="none" 
	d="
M106.017784,93.333115 
	C105.969421,95.202232 105.758331,97.360802 105.285172,99.756134 
	C105.300415,97.869453 105.577736,95.746017 106.017784,93.333115 
z"/>
<path fill="#D6D6D6" opacity="1.000000" stroke="none" 
	d="
M197.060501,143.675476 
	C197.111984,141.806229 197.306549,139.637009 197.765625,137.228363 
	C197.754623,139.117783 197.479095,141.246643 197.060501,143.675476 
z"/>
<path fill="#CDCDCD" opacity="1.000000" stroke="none" 
	d="
M104.431168,105.619507 
	C104.559479,107.408379 104.473503,109.474915 104.048645,111.814362 
	C103.878807,110.023903 104.047844,107.960541 104.431168,105.619507 
z"/>
<path fill="#D6D6D6" opacity="1.000000" stroke="none" 
	d="
M198.615845,132.501938 
	C198.311035,130.623062 198.231827,128.453537 198.262848,125.747253 
	C198.529205,127.544098 198.685318,129.877686 198.615845,132.501938 
z"/>
<path fill="#BDBDBD" opacity="1.000000" stroke="none" 
	d="
M122.320251,154.276978 
	C122.940643,155.758072 123.447762,157.622849 123.883705,159.890244 
	C123.277344,158.415466 122.742157,156.538055 122.320251,154.276978 
z"/>
<path fill="#E2E2E2" opacity="1.000000" stroke="none" 
	d="
M171.823639,24.686869 
	C170.520966,25.886068 169.269791,26.763483 167.828033,27.359760 
	C167.821228,26.074125 168.004974,25.069626 168.188721,24.065125 
	C168.888184,23.554152 169.587662,23.043182 170.535980,22.305721 
	C171.148239,22.841179 171.511673,23.603130 171.823639,24.686869 
z"/>
<path fill="#D6D6D6" opacity="1.000000" stroke="none" 
	d="
M114.493057,56.661018 
	C114.184196,58.566708 113.590034,60.687824 112.658310,62.918510 
	C112.949745,60.977539 113.578751,58.926991 114.493057,56.661018 
z"/>
<path fill="#3B3B3B" opacity="1.000000" stroke="none" 
	d="
M134.091904,119.808014 
	C133.541580,118.575851 133.258530,117.118103 133.101364,115.296875 
	C133.604568,116.483063 133.981873,118.032745 134.091904,119.808014 
z"/>
<path fill="#E2E2E2" opacity="1.000000" stroke="none" 
	d="
M154.676727,16.356781 
	C153.560532,17.232748 152.109116,18.081318 150.313782,18.959526 
	C151.427078,18.102570 152.884308,17.215975 154.676727,16.356781 
z"/>
<path fill="#F1F1F1" opacity="1.000000" stroke="none" 
	d="
M494.337952,145.925781 
	C495.494751,145.031830 496.989502,144.069199 498.855682,143.094208 
	C497.710022,144.006927 496.192932,144.932022 494.337952,145.925781 
z"/>
<path fill="#BDBDBD" opacity="1.000000" stroke="none" 
	d="
M132.285858,104.771194 
	C131.869125,103.881584 131.588974,102.722145 131.525879,101.321625 
	C131.969421,102.220818 132.195938,103.361092 132.285858,104.771194 
z"/>
<path fill="#D6D6D6" opacity="1.000000" stroke="none" 
	d="
M198.080307,122.759949 
	C197.326263,121.884537 196.661499,120.771912 196.000885,119.323151 
	C196.726547,120.165588 197.448074,121.344162 198.080307,122.759949 
z"/>
<path fill="#CDCDCD" opacity="1.000000" stroke="none" 
	d="
M102.459854,122.600204 
	C102.653931,123.727028 102.620407,125.062462 102.311584,126.693359 
	C102.101608,125.595490 102.166931,124.202148 102.459854,122.600204 
z"/>
<path fill="#3B3B3B" opacity="1.000000" stroke="none" 
	d="
M135.156937,132.989594 
	C134.658356,132.021622 134.410614,130.898315 134.251968,129.341583 
	C134.696640,130.216858 135.052216,131.525558 135.156937,132.989594 
z"/>
<path fill="#646464" opacity="1.000000" stroke="none" 
	d="
M119.647346,134.209656 
	C120.186935,135.169220 120.487343,136.329742 120.667526,137.851044 
	C120.167595,136.944763 119.787880,135.677673 119.647346,134.209656 
z"/>
<path fill="#E2E2E2" opacity="1.000000" stroke="none" 
	d="
M148.803589,32.212769 
	C149.425064,33.157524 149.967438,34.355736 150.298172,35.761040 
	C149.632523,34.800827 149.178513,33.633522 148.803589,32.212769 
z"/>
<path fill="#CDCDCD" opacity="1.000000" stroke="none" 
	d="
M107.434441,84.637650 
	C107.548042,85.808197 107.443855,87.260262 107.024071,88.895569 
	C106.877876,87.692261 107.047264,86.305717 107.434441,84.637650 
z"/>
<path fill="#CDCDCD" opacity="1.000000" stroke="none" 
	d="
M108.675911,77.959122 
	C108.751175,79.020981 108.608017,80.258842 108.180550,81.748627 
	C108.083321,80.712074 108.270401,79.423599 108.675911,77.959122 
z"/>
<path fill="#E2E2E2" opacity="1.000000" stroke="none" 
	d="
M173.348831,30.704054 
	C172.873779,30.064556 172.472107,29.108921 172.113983,27.806389 
	C172.579086,28.435633 173.000656,29.411776 173.348831,30.704054 
z"/>
<path fill="#E2E2E2" opacity="1.000000" stroke="none" 
	d="
M154.711807,54.284546 
	C155.173080,54.899017 155.560165,55.817776 155.905457,57.065922 
	C155.454987,56.459820 155.046310,55.524326 154.711807,54.284546 
z"/>
<path fill="#E2E2E2" opacity="1.000000" stroke="none" 
	d="
M147.506744,27.313786 
	C148.006165,27.986618 148.441299,28.991201 148.804016,30.366398 
	C148.301910,29.706520 147.872177,28.676029 147.506744,27.313786 
z"/>
<path fill="#646464" opacity="1.000000" stroke="none" 
	d="
M122.128983,146.809860 
	C122.235008,147.492004 122.180824,147.969803 121.971146,148.773529 
	C121.454697,148.169022 121.093750,147.238586 120.973068,146.141022 
	C121.465149,146.184418 121.716957,146.394958 122.128983,146.809860 
z"/>
<path fill="#E2E2E2" opacity="1.000000" stroke="none" 
	d="
M150.371338,38.326035 
	C150.897034,38.995522 151.374176,40.004528 151.765778,41.394562 
	C151.227753,40.738914 150.775269,39.702240 150.371338,38.326035 
z"/>
<path fill="#F1F1F1" opacity="1.000000" stroke="none" 
	d="
M490.314026,147.365753 
	C490.980011,146.884171 491.971039,146.495361 493.317505,146.153015 
	C492.661652,146.619156 491.650391,147.038849 490.314026,147.365753 
z"/>
<path fill="#CDCDCD" opacity="1.000000" stroke="none" 
	d="
M103.019714,118.259789 
	C103.249458,118.933029 103.322617,119.822044 103.140755,120.873436 
	C102.878204,120.182396 102.870667,119.328979 103.019714,118.259789 
z"/>
<path fill="#E2E2E2" opacity="1.000000" stroke="none" 
	d="
M160.797394,14.773764 
	C160.170013,15.236438 159.296997,15.594806 158.048233,15.916844 
	C158.632248,15.476830 159.591995,15.073144 160.797394,14.773764 
z"/>
<path fill="#E2E2E2" opacity="1.000000" stroke="none" 
	d="
M180.618805,57.674133 
	C180.094498,57.005608 179.620514,55.997131 179.230225,54.608719 
	C179.765640,55.263920 180.217392,56.299049 180.618805,57.674133 
z"/>
<path fill="#181818" opacity="1.000000" stroke="none" 
	d="
M494.952881,97.374893 
	C494.151703,97.621132 493.281158,97.571243 492.205566,97.259720 
	C492.961548,97.024979 493.922485,97.051872 494.952881,97.374893 
z"/>
<path fill="#CDCDCD" opacity="1.000000" stroke="none" 
	d="
M110.472404,69.648071 
	C110.566200,70.509605 110.453217,71.630447 110.032150,72.916092 
	C109.904579,72.023064 110.085098,70.965225 110.472404,69.648071 
z"/>
<path fill="#F1F1F1" opacity="1.000000" stroke="none" 
	d="
M508.395081,103.571602 
	C507.501373,103.599068 506.390289,103.367241 505.135681,102.813278 
	C506.054016,102.764862 507.115845,103.038582 508.395081,103.571602 
z"/>
<path fill="#E2E2E2" opacity="1.000000" stroke="none" 
	d="
M157.665863,65.292679 
	C158.140198,65.936348 158.536011,66.892891 158.889435,68.196083 
	C158.427139,67.563683 158.007233,66.584625 157.665863,65.292679 
z"/>
<path fill="#E2E2E2" opacity="1.000000" stroke="none" 
	d="
M156.265579,60.307762 
	C156.771088,60.811165 157.229187,61.631744 157.502838,62.668476 
	C156.951660,62.131397 156.584915,61.378170 156.265579,60.307762 
z"/>
<path fill="#E2E2E2" opacity="1.000000" stroke="none" 
	d="
M181.394562,62.741959 
	C181.176926,62.146072 180.838608,61.255463 180.701111,60.200378 
	C181.025894,60.839684 181.149887,61.643459 181.394562,62.741959 
z"/>
<path fill="#181818" opacity="1.000000" stroke="none" 
	d="
M457.809448,96.672516 
	C457.490814,97.165375 457.021210,97.452583 456.262146,97.675385 
	C456.534637,97.229599 457.096558,96.848236 457.809448,96.672516 
z"/>
<path fill="#D6D6D6" opacity="1.000000" stroke="none" 
	d="
M191.201447,153.279755 
	C191.751694,153.440094 192.339142,153.891159 192.965363,154.641037 
	C192.415649,154.483398 191.827164,154.026917 191.201447,153.279755 
z"/>
<path fill="#E2E2E2" opacity="1.000000" stroke="none" 
	d="
M166.103287,15.710678 
	C165.591507,15.766095 164.984039,15.608843 164.177826,15.198429 
	C164.655258,15.129516 165.331436,15.313763 166.103287,15.710678 
z"/>
<path fill="#F1F1F1" opacity="1.000000" stroke="none" 
	d="
M453.817413,149.453003 
	C454.376495,149.187408 455.041656,149.149765 456.207397,149.157806 
	C455.779846,149.362640 454.851654,149.521790 453.817413,149.453003 
z"/>
<path fill="#BDBDBD" opacity="1.000000" stroke="none" 
	d="
M131.952835,95.744148 
	C131.743164,95.314438 131.750366,94.700104 131.968079,94.002419 
	C132.175644,94.465881 132.172668,95.012711 131.952835,95.744148 
z"/>
<path fill="#E2E2E2" opacity="1.000000" stroke="none" 
	d="
M148.553741,20.591499 
	C148.576157,21.202326 148.338287,21.986605 147.798065,22.893356 
	C147.761612,22.265539 148.027527,21.515244 148.553741,20.591499 
z"/>
<path fill="#181818" opacity="1.000000" stroke="none" 
	d="
M500.957611,98.750229 
	C500.414246,98.912796 499.845703,98.780266 499.116394,98.392761 
	C499.614594,98.243576 500.273499,98.349358 500.957611,98.750229 
z"/>
<path fill="#F1F1F1" opacity="1.000000" stroke="none" 
	d="
M501.287415,141.786804 
	C501.441742,141.236252 501.884277,140.655411 502.619263,140.023315 
	C502.466400,140.566879 502.021027,141.161697 501.287415,141.786804 
z"/>
<path fill="#F1F1F1" opacity="1.000000" stroke="none" 
	d="
M514.459595,126.489792 
	C514.463867,125.871368 514.714966,125.055519 515.284363,124.117188 
	C515.303955,124.760597 515.005249,125.526482 514.459595,126.489792 
z"/>
<path fill="#F1F1F1" opacity="1.000000" stroke="none" 
	d="
M512.971680,106.693901 
	C512.361267,106.600235 511.740875,106.200417 511.059723,105.508492 
	C511.653229,105.606834 512.307434,105.997292 512.971680,106.693901 
z"/>
<path fill="#CDCDCD" opacity="1.000000" stroke="none" 
	d="
M111.577026,65.688896 
	C111.698166,66.244980 111.602112,66.913422 111.229286,67.798233 
	C111.088287,67.276825 111.224052,66.539040 111.577026,65.688896 
z"/>
<path fill="#E2E2E2" opacity="1.000000" stroke="none" 
	d="
M174.441467,34.753040 
	C174.039597,34.488022 173.708450,33.956360 173.539459,33.266136 
	C173.971802,33.567184 174.241974,34.026791 174.441467,34.753040 
z"/>
<path fill="#F1F1F1" opacity="1.000000" stroke="none" 
	d="
M509.232483,132.733612 
	C509.476746,132.247116 510.009857,131.685043 510.861603,131.119156 
	C510.627289,131.629562 510.074280,132.143799 509.232483,132.733612 
z"/>
<path fill="#F1F1F1" opacity="1.000000" stroke="none" 
	d="
M511.400085,131.084320 
	C511.485077,130.497559 511.853821,129.816284 512.532959,129.067230 
	C512.456909,129.662903 512.070374,130.326355 511.400085,131.084320 
z"/>
<path fill="#3B3B3B" opacity="1.000000" stroke="none" 
	d="
M140.329071,37.904877 
	C140.286972,37.243984 140.604019,36.504128 141.155121,35.561256 
	C141.155533,36.180798 140.921890,37.003357 140.329071,37.904877 
z"/>
<path fill="#181818" opacity="1.000000" stroke="none" 
	d="
M468.963409,95.731384 
	C468.547791,96.080978 468.097168,96.141418 467.322113,96.084076 
	C467.323181,95.481712 467.648682,94.997139 467.974182,94.512558 
	C468.292297,94.822449 468.610352,95.132339 468.963409,95.731384 
z"/>
<path fill="#646464" opacity="1.000000" stroke="none" 
	d="
M117.447662,127.959328 
	C117.756325,127.771484 118.388344,127.463692 119.081398,127.509094 
	C118.685295,127.854652 118.228165,127.847023 117.447662,127.959328 
z"/>
<path fill="#F1F1F1" opacity="1.000000" stroke="none" 
	d="
M452.929443,148.215302 
	C453.397095,148.225677 453.582184,148.498291 453.797363,149.019531 
	C453.433929,149.004623 453.040405,148.741104 452.929443,148.215302 
z"/>
<path fill="#1B1B1B" opacity="1.000000" stroke="none" 
	d="
M314.059631,120.946838 
	C310.439270,125.058899 306.455719,127.147095 300.189026,125.846802 
	C302.223419,118.740158 304.000702,111.957413 306.156891,105.297340 
	C306.959656,102.817795 308.985809,102.488556 311.410278,103.851311 
	C317.940430,107.521835 319.121063,114.000526 314.059631,120.946838 
z"/>
<path fill="#1F1F1F" opacity="1.000000" stroke="none" 
	d="
M361.093445,116.210983 
	C364.126068,112.389984 366.958557,108.874771 369.791046,105.359566 
	C370.274261,105.529312 370.757446,105.699059 371.240662,105.868805 
	C371.885895,112.773926 372.531128,119.679047 373.240173,127.267166 
	C366.677856,127.776466 360.884949,128.226044 354.387878,128.730286 
	C356.843597,124.119843 358.868469,120.318306 361.093445,116.210983 
z"/>
<path fill="#151515" opacity="1.000000" stroke="none" 
	d="
M483.066589,111.426994 
	C485.620697,108.503639 485.843842,103.768723 491.415314,104.656952 
	C498.632294,105.807503 501.319855,107.735359 501.268677,115.133369 
	C501.194794,125.808716 497.348114,134.968491 487.519836,140.337616 
	C485.161621,141.625900 481.785248,141.749863 479.008972,141.390579 
	C475.781921,140.972946 476.459137,138.222656 477.043274,135.837479 
	C479.008698,127.812195 480.893921,119.767258 483.066589,111.426994 
z"/>
<path fill="#1B1B1B" opacity="1.000000" stroke="none" 
	d="
M262.267303,124.514626 
	C260.349884,125.047943 258.772797,125.645508 257.180695,125.688637 
	C254.286163,125.767036 252.847473,124.557053 253.876755,121.344856 
	C255.334961,116.794128 256.633636,112.190163 257.907379,107.583199 
	C258.739532,104.573296 259.568054,101.404228 263.642548,102.324516 
	C267.520416,103.200401 270.202850,105.735565 270.135986,109.960457 
	C270.041565,115.924484 267.368744,120.721916 262.267303,124.514626 
z"/>
<path fill="#212121" opacity="1.000000" stroke="none" 
	d="
M178.014984,101.608299 
	C180.166611,109.845673 182.207520,117.695686 184.372849,126.024193 
	C182.577667,126.559120 180.658951,127.130852 178.041702,127.910728 
	C176.708130,123.448418 175.381073,119.007912 173.781708,114.300003 
	C171.505630,106.534447 169.441132,99.051903 167.510162,91.535065 
	C162.870956,73.475761 158.261871,55.408535 153.724457,37.323475 
	C152.965683,34.299179 153.714462,33.877857 159.880478,33.536411 
	C162.141647,42.182014 164.417664,50.952541 166.731583,59.713055 
	C169.239288,69.207214 171.770905,78.695107 174.315079,88.179565 
	C175.483200,92.534271 176.706177,96.874268 178.014984,101.608299 
z"/>
<path fill="#212121" opacity="1.000000" stroke="none" 
	d="
M172.144745,38.923904 
	C172.363861,39.828037 172.434128,40.385365 172.732101,41.119888 
	C173.669006,44.372139 174.378189,47.447197 175.251892,50.866615 
	C175.544312,51.760483 175.672211,52.309986 176.014633,53.054516 
	C178.599686,62.892918 180.900482,72.554146 183.362320,82.174156 
	C185.422470,90.224541 187.670914,98.226738 189.961212,106.623520 
	C191.499481,112.364586 192.912521,117.732414 194.310715,123.043900 
	C187.444702,125.988167 187.508820,125.795799 186.015701,118.867012 
	C184.709290,112.804543 182.632660,106.908035 180.549561,100.773659 
	C178.075027,91.714081 176.018860,82.801155 173.802307,73.928291 
	C170.585571,61.051613 167.307800,48.189396 163.920456,35.356800 
	C163.294052,32.983784 163.437531,31.577564 166.103333,30.947388 
	C168.707352,30.331812 170.251358,30.893606 170.670547,33.785049 
	C170.906464,35.412247 171.540955,36.981655 172.144745,38.923904 
z"/>
<path fill="#1F1F1F" opacity="1.000000" stroke="none" 
	d="
M168.018677,23.785133 
	C168.004974,25.069626 167.821228,26.074125 167.485291,27.358047 
	C162.399124,28.744055 157.465149,29.850639 152.609619,30.939632 
	C149.765564,24.194881 150.282715,21.860046 154.783813,20.012590 
	C162.954117,16.659121 165.533783,17.348726 168.018677,23.785133 
z"/>
<path fill="#181818" opacity="1.000000" stroke="none" 
	d="
M125.713913,47.192829 
	C127.729088,47.053268 129.455780,47.098797 131.599274,47.025368 
	C136.421753,47.926319 137.109177,51.484383 137.673859,55.150471 
	C137.996719,57.246590 138.671494,59.327099 138.703979,61.422134 
	C138.802673,67.787018 142.847214,70.374786 148.219482,71.667145 
	C151.245270,72.395020 153.746521,73.295959 152.832626,77.187401 
	C137.147919,81.342941 134.714081,67.624977 129.079742,58.231216 
	C128.585266,58.554611 128.090805,58.878006 127.596329,59.201401 
	C127.706146,60.638443 127.297478,62.436283 128.007050,63.455967 
	C134.186386,72.335815 131.206635,81.477188 129.356110,90.739952 
	C128.490921,95.070732 128.698929,99.615921 128.437836,104.748230 
	C128.626617,105.957771 128.798080,106.483017 128.969543,107.008255 
	C129.759842,117.390907 130.550140,127.773567 131.363876,138.901215 
	C131.630524,140.423874 131.873718,141.201538 132.116913,141.979218 
	C132.327148,146.135498 132.787323,150.302338 132.612350,154.442337 
	C132.550964,155.894928 130.929749,157.281586 130.020813,158.698349 
	C128.421722,157.414749 126.093628,156.430786 125.411224,154.770432 
	C124.589714,152.771606 125.167015,150.197876 125.014786,147.440216 
	C124.442390,142.329422 123.993965,137.651428 123.543442,132.285736 
	C123.334557,131.071091 123.127769,130.544159 122.920990,130.017242 
	C122.555023,119.791847 122.189049,109.566444 121.823082,99.341049 
	C121.484924,99.249878 121.146759,99.158707 120.808601,99.067543 
	C120.218124,100.592140 119.391144,102.069183 119.073517,103.648659 
	C115.659988,120.623344 112.384811,137.626205 108.871826,154.579926 
	C108.559402,156.087662 106.843216,157.304489 105.778999,158.656433 
	C104.561317,157.023087 103.343636,155.389755 102.067070,153.377457 
	C102.099014,152.597488 102.189850,152.196472 102.307159,151.485596 
	C102.894028,148.038284 103.454414,144.900833 104.143433,141.236740 
	C104.226791,140.127899 104.181534,139.545700 104.136276,138.963501 
	C105.121788,130.242905 106.107300,121.522301 107.209061,112.186409 
	C107.283150,111.031540 107.240982,110.491974 107.198822,109.952400 
	C107.508842,107.269592 107.818871,104.586792 108.287003,101.263199 
	C108.470459,100.068466 108.495811,99.514511 108.521164,98.960556 
	C109.333786,93.901276 110.146408,88.841995 111.125946,83.185493 
	C111.348183,82.044212 111.403496,81.500160 111.458801,80.956100 
	C112.282417,77.225914 113.106033,73.495728 114.141266,69.196388 
	C114.444786,68.073929 114.536682,67.520630 114.628586,66.967323 
	C116.495636,62.087494 118.091408,57.076565 120.356606,52.389141 
	C121.330879,50.373051 123.693535,49.027893 125.713913,47.192829 
z"/>
<path fill="#BDBDBD" opacity="1.000000" stroke="none" 
	d="
M132.357147,141.831406 
	C131.873718,141.201538 131.630524,140.423874 131.511841,139.348236 
	C131.946930,139.311325 132.257507,139.572342 132.739914,139.940201 
	C132.806961,140.592545 132.702179,141.138077 132.357147,141.831406 
z"/>
<path fill="#BDBDBD" opacity="1.000000" stroke="none" 
	d="
M129.178680,106.887848 
	C128.798080,106.483017 128.626617,105.957771 128.592728,105.176620 
	C128.949478,105.536285 129.168640,106.151863 129.178680,106.887848 
z"/>
<path fill="#212121" opacity="1.000000" stroke="none" 
	d="
M193.419327,127.649590 
	C195.739914,130.156357 195.335678,138.147079 193.257004,139.769333 
	C190.463486,141.949463 186.028366,140.924789 183.135376,137.377853 
	C181.894119,135.856033 180.746872,134.257523 179.522705,132.648880 
	C182.124054,128.570557 184.871094,130.468857 187.424698,132.009201 
	C189.336395,130.500336 191.152893,129.066605 193.419327,127.649590 
z"/>
<path fill="#BDBDBD" opacity="1.000000" stroke="none" 
	d="
M122.711121,130.134796 
	C123.127769,130.544159 123.334557,131.071091 123.396149,131.861633 
	C123.001045,131.500961 122.751144,130.876663 122.711121,130.134796 
z"/>
<path fill="#D6D6D6" opacity="1.000000" stroke="none" 
	d="
M114.374069,67.013046 
	C114.536682,67.520630 114.444786,68.073929 114.118942,68.797310 
	C113.963181,68.331184 114.041374,67.694977 114.374069,67.013046 
z"/>
<path fill="#D6D6D6" opacity="1.000000" stroke="none" 
	d="
M106.981651,110.043243 
	C107.240982,110.491974 107.283150,111.031540 107.131241,111.776726 
	C106.879601,111.366257 106.822044,110.750168 106.981651,110.043243 
z"/>
<path fill="#D6D6D6" opacity="1.000000" stroke="none" 
	d="
M111.215927,81.010391 
	C111.403496,81.500160 111.348183,82.044212 111.079216,82.775574 
	C110.901390,82.330147 110.937225,81.697418 111.215927,81.010391 
z"/>
<path fill="#D6D6D6" opacity="1.000000" stroke="none" 
	d="
M108.268143,99.016388 
	C108.495811,99.514511 108.470459,100.068466 108.230148,100.813431 
	C108.015175,100.360367 108.015152,99.716286 108.268143,99.016388 
z"/>
<path fill="#CDCDCD" opacity="1.000000" stroke="none" 
	d="
M103.895996,139.082306 
	C104.181534,139.545700 104.226791,140.127899 104.073746,140.839417 
	C103.802200,140.379517 103.728958,139.790314 103.895996,139.082306 
z"/>
<path fill="#1B1B1B" opacity="1.000000" stroke="none" 
	d="
M126.081406,28.388659 
	C127.310616,26.307898 128.220673,24.245922 129.795959,23.092339 
	C131.032196,22.187027 133.469818,21.643726 134.714798,22.263403 
	C138.803452,24.298475 139.357162,28.566055 138.057312,32.113251 
	C137.084183,34.768917 133.994385,36.648956 131.847046,38.874348 
	C129.988586,36.994225 127.873505,35.293152 126.382690,33.156513 
	C125.664650,32.127411 126.123238,30.277342 126.081406,28.388659 
z"/>
</svg>